<svg xmlns="http://www.w3.org/2000/svg" xmlns:xlink="http://www.w3.org/1999/xlink" viewBox="0 0 21.47 29.05"><defs><style>.cls-1{fill:#3d3d3c;opacity:0.23;}.cls-2{fill:#fff;}.cls-3{fill:url(#Degradado_sin_nombre_2);}</style><linearGradient id="Degradado_sin_nombre_2" x1="3.55" y1="13.72" x2="17.92" y2="13.72" gradientUnits="userSpaceOnUse"><stop offset="0" stop-color="#af221e"/><stop offset="1" stop-color="#921f27"/></linearGradient></defs><title>Recurso 236ldpi</title><g id="Capa_2" data-name="Capa 2"><g id="Capa_1-2" data-name="Capa 1"><ellipse class="cls-1" cx="10.73" cy="28.28" rx="6.93" ry="0.77"/><polygon class="cls-2" points="10.73 0 21.47 6.6 21.47 19.79 10.73 26.39 0 19.79 0 6.6 10.73 0"/><path class="cls-3" d="M15.82,8.7H5.65a2.1,2.1,0,0,0-2.1,2.1v5.83a2.1,2.1,0,0,0,2.1,2.1H15.82a2.1,2.1,0,0,0,2.1-2.1V10.8A2.1,2.1,0,0,0,15.82,8.7ZM9.24,15.6V11.54l3.9,2Z"/></g></g></svg>