<svg xmlns="http://www.w3.org/2000/svg" xmlns:xlink="http://www.w3.org/1999/xlink" viewBox="0 0 21.47 29.05"><defs><style>.cls-1{fill:#fff;}.cls-2{fill:#3d3d3c;opacity:0.23;}.cls-3{fill:url(#Degradado_sin_nombre_8);}</style><linearGradient id="Degradado_sin_nombre_8" x1="3.93" y1="13.2" x2="17.54" y2="13.2" gradientUnits="userSpaceOnUse"><stop offset="0" stop-color="#71a8a4"/><stop offset="1" stop-color="#528e88"/></linearGradient></defs><title>Recurso 239ldpi</title><g id="Capa_2" data-name="Capa 2"><g id="Capa_1-2" data-name="Capa 1"><polygon class="cls-1" points="10.73 0 21.47 6.6 21.47 19.79 10.73 26.39 0 19.79 0 6.6 10.73 0"/><ellipse class="cls-2" cx="10.73" cy="28.28" rx="6.93" ry="0.77"/><path class="cls-3" d="M16.15,10.42v.36A7.93,7.93,0,0,1,3.93,17.47c.21,0,.44,0,.66,0a5.59,5.59,0,0,0,3.47-1.2,2.8,2.8,0,0,1-2.61-1.94,2.32,2.32,0,0,0,.53.05,2.52,2.52,0,0,0,.73-.1,2.78,2.78,0,0,1-2.23-2.73v0a2.67,2.67,0,0,0,1.26.35,2.78,2.78,0,0,1-.86-3.72,7.91,7.91,0,0,0,5.75,2.91,2.62,2.62,0,0,1-.07-.64,2.79,2.79,0,0,1,2.79-2.78,2.84,2.84,0,0,1,2,.87,5.49,5.49,0,0,0,1.77-.67,2.79,2.79,0,0,1-1.23,1.55A5.73,5.73,0,0,0,17.54,9a5.81,5.81,0,0,1-1.39,1.45Z"/></g></g></svg>