<svg xmlns="http://www.w3.org/2000/svg" xmlns:xlink="http://www.w3.org/1999/xlink" viewBox="0 0 21.47 29.05"><defs><style>.cls-1{fill:#3d3d3c;opacity:0.23;}.cls-2{fill:#fff;}.cls-3{fill:url(#Degradado_sin_nombre_6);}.cls-4{fill:url(#Degradado_sin_nombre_6-2);}.cls-5{fill:url(#Degradado_sin_nombre_6-3);}</style><linearGradient id="Degradado_sin_nombre_6" x1="3.8" y1="12.73" x2="17.67" y2="12.73" gradientUnits="userSpaceOnUse"><stop offset="0.09" stop-color="#d5a243"/><stop offset="0.42" stop-color="#b53841"/><stop offset="0.76" stop-color="#722176"/></linearGradient><linearGradient id="Degradado_sin_nombre_6-2" x1="7.11" y1="12.73" x2="14.36" y2="12.73" xlink:href="#Degradado_sin_nombre_6"/><linearGradient id="Degradado_sin_nombre_6-3" x1="13.78" y1="8.92" x2="15.48" y2="8.92" xlink:href="#Degradado_sin_nombre_6"/></defs><title>Recurso 237ldpi</title><g id="Capa_2" data-name="Capa 2"><g id="Capa_1-2" data-name="Capa 1"><ellipse class="cls-1" cx="10.73" cy="28.28" rx="6.93" ry="0.77"/><polygon class="cls-2" points="10.73 0 21.47 6.6 21.47 19.79 10.73 26.39 0 19.79 0 6.6 10.73 0"/><path class="cls-3" d="M14.7,19.72H6.77a3,3,0,0,1-3-2.91V8.65a2.94,2.94,0,0,1,3-2.91H14.7a2.94,2.94,0,0,1,3,2.91v8.16A3,3,0,0,1,14.7,19.72ZM6.77,6.94A1.74,1.74,0,0,0,5,8.65v8.16a1.75,1.75,0,0,0,1.78,1.71H14.7a1.74,1.74,0,0,0,1.77-1.71V8.65A1.74,1.74,0,0,0,14.7,6.94Z"/><path class="cls-4" d="M10.73,16.35a3.63,3.63,0,1,1,3.63-3.62A3.62,3.62,0,0,1,10.73,16.35Zm0-6.05a2.43,2.43,0,1,0,2.43,2.43A2.43,2.43,0,0,0,10.73,10.3Z"/><path class="cls-5" d="M15.48,8.92a.85.85,0,1,1-.85-.85A.85.85,0,0,1,15.48,8.92Z"/></g></g></svg>