<svg xmlns="http://www.w3.org/2000/svg" xmlns:xlink="http://www.w3.org/1999/xlink" viewBox="0 0 472.74 229.33"><defs><style>.cls-1{fill:#6ebca9;}.cls-2{fill:#04adb5;}.cls-3{fill:#41a953;}.cls-4{fill:#6abf4b;}.cls-5{fill:#1e8931;}.cls-6{fill:#72c2ca;}.cls-7{fill:#15aa94;}.cls-8{fill:#088b93;}.cls-9{fill:#5da5d8;}.cls-10{fill:#407ab9;}.cls-11{fill:#92d1f2;}.cls-12{fill:url(#Degradado_sin_nombre_46);}.cls-13{fill:url(#Degradado_sin_nombre_13);}.cls-14{fill:url(#Degradado_sin_nombre_13-2);}.cls-15{fill:url(#Degradado_sin_nombre_65);}.cls-16{fill:#1d9031;}.cls-17{fill:#14ab96;}.cls-18{fill:#fff;}</style><linearGradient id="Degradado_sin_nombre_46" x1="403.01" y1="30.29" x2="472.68" y2="38.55" gradientUnits="userSpaceOnUse"><stop offset="0.01" stop-color="#43a1d7"/><stop offset="0.36" stop-color="#387ebd"/><stop offset="0.9" stop-color="#b11a86"/></linearGradient><linearGradient id="Degradado_sin_nombre_13" x1="420.82" y1="60.47" x2="474.03" y2="3.57" gradientUnits="userSpaceOnUse"><stop offset="0.01" stop-color="#92d1f2"/><stop offset="0.26" stop-color="#5da5d8"/><stop offset="0.9" stop-color="#da1c77"/></linearGradient><linearGradient id="Degradado_sin_nombre_13-2" x1="394.56" y1="37.8" x2="468.32" y2="-10.67" xlink:href="#Degradado_sin_nombre_13"/><linearGradient id="Degradado_sin_nombre_65" x1="407.75" y1="58.4" x2="421.46" y2="58.4" gradientUnits="userSpaceOnUse"><stop offset="0" stop-color="#407ab9"/><stop offset="1" stop-color="#245a8d"/></linearGradient></defs><title>Recurso 3ldpi</title><g id="Capa_2" data-name="Capa 2"><g id="Capa_1-2" data-name="Capa 1"><polygon class="cls-1" points="33.73 0 93.15 52.9 41.9 80.48 33.73 0"/><polygon class="cls-2" points="122.62 22.44 33.73 0 93.15 52.9 122.62 22.44"/><polygon class="cls-3" points="0 57.31 33.73 0 41.9 80.48 0 57.31"/><polygon class="cls-4" points="9.94 115.92 0 57.31 41.9 80.48 9.94 115.92"/><polygon class="cls-5" points="86.37 135.05 9.94 115.92 41.9 80.48 86.37 135.05"/><polygon class="cls-6" points="129.73 85.95 93.15 52.9 122.62 22.44 129.73 85.95"/><polygon class="cls-7" points="41.9 80.48 93.15 52.9 86.37 135.05 41.9 80.48"/><polygon class="cls-8" points="129.73 85.95 86.37 135.05 93.15 52.9 129.73 85.95"/><path class="cls-8" d="M154.64,9.42l41.09,15.31s-58.7,37.77-56.91,36S154.64,9.42,154.64,9.42Z"/><polygon class="cls-6" points="193.88 46.95 214.43 46.95 201.78 73.81 193.88 46.95"/><polygon class="cls-2" points="220.49 6.52 247.66 42 259.22 12.68 220.49 6.52"/><polygon class="cls-9" points="264.8 65.11 294.83 32.44 306.69 57.73 264.8 65.11"/><polygon class="cls-10" points="331.1 62.09 346.12 75.26 319.25 91.33 331.1 62.09"/><polygon class="cls-11" points="364.66 60.63 376.78 71.96 385.47 48.78 364.66 60.63"/><polygon class="cls-12" points="402.59 42 407.75 69.4 472.74 0 402.59 42"/><polygon class="cls-13" points="409.55 47.4 437.66 67.57 472.74 0 409.55 47.4"/><polygon class="cls-14" points="402.59 42 385.47 30.19 472.74 0 402.59 42"/><polygon class="cls-15" points="407.75 69.4 409.55 47.4 421.45 55.94 407.75 69.4"/><path class="cls-4" d="M87.13,224.78v4.52H75.66V209H80.2v15.78Z"/><path class="cls-4" d="M95.26,213.55v3.34h8.64v4.52H95.26v3.37h8.64v4.52H90.72V209h4.54v0h8.64v4.52Z"/><path class="cls-4" d="M121.65,209.83a10.44,10.44,0,0,1,3.24,2.18,10.17,10.17,0,0,1,2.18,3.23,10.1,10.1,0,0,1,0,7.88,10.17,10.17,0,0,1-2.18,3.23,10.44,10.44,0,0,1-3.24,2.18,10.2,10.2,0,0,1-7.92,0,10.22,10.22,0,0,1-3.24-2.18,10.37,10.37,0,0,1-2.19-3.23,10.1,10.1,0,0,1,0-7.88,10.37,10.37,0,0,1,2.19-3.23,10.22,10.22,0,0,1,3.24-2.18,10.2,10.2,0,0,1,7.92,0Zm-1.76,14.54a5.91,5.91,0,0,0,1.8-1.2,5.73,5.73,0,0,0,1.2-1.8,5.67,5.67,0,0,0,0-4.38,5.73,5.73,0,0,0-1.2-1.8,5.91,5.91,0,0,0-1.8-1.2,5.69,5.69,0,0,0-6.2,1.2,5.76,5.76,0,0,0-1.21,1.8,5.67,5.67,0,0,0,0,4.38,5.76,5.76,0,0,0,1.21,1.8,5.67,5.67,0,0,0,1.8,1.2,5.72,5.72,0,0,0,4.4,0Zm2.75-19.62-1.33-4.33L112.73,203l1.33,4.31Z"/><path class="cls-4" d="M142.48,229.3,136,217.72V229.3h-4.54V209h4.85l6.48,11.58V209h4.54V229.3Z"/><path class="cls-16" d="M157.33,221.44v-4.52h9.91v4.52Z"/><path class="cls-17" d="M197.33,209v20.3h-4.54V217.5l-3.26,11.8H185.1l-3.3-12.05V229.3h-4.54V209l7,0,3.1,11.25L190.44,209Z"/><path class="cls-17" d="M214.14,213.53h-8.67v3.33h8.67v4.53h-8.67v3.39h8.67v4.52H200.93V209h13.21Zm-10.28-6.21,8.62-2.59-1.33-4.34L202.56,203Z"/><path class="cls-17" d="M228.75,219.18l5.82,10.12h-5.21l-3.24-5.6-3.21,5.6h-5.2l5.81-10.12-5.81-10.12h5.23l3.18,5.57,3.21-5.57h5.24Z"/><path class="cls-17" d="M238.17,229.3V209h4.54v20.3Z"/><path class="cls-17" d="M255.41,229.33c-.31,0-.62,0-.92-.05l-.9-.14a8.7,8.7,0,0,1-.88-.22c-.28-.09-.56-.2-.84-.31s-.52-.26-.78-.4-.51-.29-.77-.45a5,5,0,0,1-.7-.51c-.22-.19-.44-.39-.64-.59a6.53,6.53,0,0,1-1.12-1.33,11.14,11.14,0,0,1-.86-1.54,13.81,13.81,0,0,1-.53-1.71,9.61,9.61,0,0,1-.17-1.82v-2.1a10.19,10.19,0,0,1,.17-1.82c.08-.3.15-.58.24-.87a7.55,7.55,0,0,1,.29-.84l.4-.77c.14-.26.3-.51.46-.75a4.12,4.12,0,0,1,.52-.72q.28-.33.6-.63a9.37,9.37,0,0,1,1.34-1.1,10,10,0,0,1,1.55-.83l.84-.31a8.7,8.7,0,0,1,.88-.22,9,9,0,0,1,3.65,0,8.52,8.52,0,0,1,.87.22l.85.31a7.56,7.56,0,0,1,1.52.83,8.63,8.63,0,0,1,1.35,1.1,8.15,8.15,0,0,1,1.11,1.35,7.56,7.56,0,0,1,.83,1.52,8.17,8.17,0,0,1,.53,1.71l-4.43.91a5.27,5.27,0,0,0-.25-.86c-.15-.29-.3-.55-.44-.77a2.29,2.29,0,0,0-.56-.66,1.64,1.64,0,0,0-.3-.29l-.36-.26a5.56,5.56,0,0,0-.78-.44,4.15,4.15,0,0,0-.85-.25,3.78,3.78,0,0,0-1.83,0,4.24,4.24,0,0,0-.86.25,6,6,0,0,0-.77.44l-.36.26a2.92,2.92,0,0,0-.34.29,4.58,4.58,0,0,0-.55.66,3.4,3.4,0,0,0-.41.77c-.06.15-.11.29-.16.43s-.09.28-.12.43a4.76,4.76,0,0,0-.09.91v2.1a4.59,4.59,0,0,0,.09.93c0,.15.08.29.12.43s.1.27.16.4a3.24,3.24,0,0,0,.41.77,3.44,3.44,0,0,0,.28.36l.27.33.34.28.36.28a3,3,0,0,0,.77.41l.43.15a3,3,0,0,0,.43.12,5.11,5.11,0,0,0,1.83,0,2.9,2.9,0,0,0,.42-.12l.43-.15A3.26,3.26,0,0,0,258,224a4.68,4.68,0,0,0,.66-.56c.11-.11.22-.22.31-.33a3.27,3.27,0,0,0,.25-.36,1.69,1.69,0,0,0,.23-.36c.07-.12.14-.26.21-.41a2.7,2.7,0,0,0,.14-.4c0-.14.07-.28.11-.43l4.43.89a7.55,7.55,0,0,1-.53,1.71,7.74,7.74,0,0,1-.83,1.54c-.16.24-.34.47-.52.69s-.38.43-.59.64-.41.4-.63.59a4.66,4.66,0,0,1-.72.51,7.09,7.09,0,0,1-.75.45l-.77.4c-.28.11-.56.22-.85.31a8.52,8.52,0,0,1-.87.22l-.91.14A9.12,9.12,0,0,1,255.41,229.33Z"/><path class="cls-17" d="M278.06,209a10,10,0,0,1,4,.8,10.56,10.56,0,0,1,3.24,2.16,10.13,10.13,0,0,1,2.18,3.22,10.06,10.06,0,0,1,0,7.91,10,10,0,0,1-2.18,3.22A10.56,10.56,0,0,1,282,228.5a10.2,10.2,0,0,1-7.92,0,10.33,10.33,0,0,1-3.24-2.16,10.21,10.21,0,0,1-2.19-3.22,10.18,10.18,0,0,1,0-7.91,10.16,10.16,0,0,1,5.43-5.38A9.94,9.94,0,0,1,278.06,209Zm0,15.75a5.65,5.65,0,0,0,2.2-.44,5.44,5.44,0,0,0,1.8-1.21,5.63,5.63,0,0,0,1.2-1.79,5.43,5.43,0,0,0,.44-2.19,5.3,5.3,0,0,0-.44-2.17,5.7,5.7,0,0,0-1.2-1.78,5.66,5.66,0,0,0-8,0,5.91,5.91,0,0,0-1.21,1.78,5.47,5.47,0,0,0-.44,2.17,5.6,5.6,0,0,0,.44,2.19,5.83,5.83,0,0,0,1.21,1.79,5.44,5.44,0,0,0,1.8,1.21A5.61,5.61,0,0,0,278.06,224.78Z"/><path class="cls-8" d="M298.27,221.44v-4.52h9.91v4.52Z"/><path class="cls-10" d="M331.9,229.3H318.2V227a4.72,4.72,0,0,1,.47-2.11,7.73,7.73,0,0,1,1.23-1.83,15,15,0,0,1,1.72-1.64c.63-.53,1.28-1,1.95-1.54.4-.29.83-.62,1.27-1s.85-.72,1.22-1.07a9.2,9.2,0,0,0,.93-1,1.48,1.48,0,0,0,.37-.87,3,3,0,0,0-.15-.95,2.57,2.57,0,0,0-.45-.83,2,2,0,0,0-.71-.59,2.35,2.35,0,0,0-2,0,2.15,2.15,0,0,0-.72.59,2.73,2.73,0,0,0-.43.83,3.3,3.3,0,0,0-.13.95H318.2a7.33,7.33,0,0,1,.52-2.79,6.93,6.93,0,0,1,1.46-2.26,6.77,6.77,0,0,1,2.17-1.51,6.5,6.5,0,0,1,2.68-.56,6.62,6.62,0,0,1,2.7.55,6.86,6.86,0,0,1,2.19,1.51,7,7,0,0,1,1.45,2.25,7.41,7.41,0,0,1,.53,2.79,5.14,5.14,0,0,1-.51,2.27,8.65,8.65,0,0,1-1.32,2,14.83,14.83,0,0,1-1.8,1.73c-.66.54-1.32,1.06-2,1.56l-.8.62-.84.65h7.23Z"/><path class="cls-10" d="M345.69,209a10,10,0,0,1,4,.8,10.44,10.44,0,0,1,3.24,2.18,10.28,10.28,0,0,1,2.18,3.23,10,10,0,0,1,0,7.89,10.24,10.24,0,0,1-2.18,3.22,10.44,10.44,0,0,1-3.24,2.18,10.2,10.2,0,0,1-7.92,0,10.22,10.22,0,0,1-3.24-2.18,10.44,10.44,0,0,1-2.19-3.22,10.13,10.13,0,0,1,0-7.89,10.48,10.48,0,0,1,2.19-3.23,10.22,10.22,0,0,1,3.24-2.18A9.9,9.9,0,0,1,345.69,209Zm0,15.78a5.6,5.6,0,0,0,5.2-3.45,5.43,5.43,0,0,0,.44-2.19,5.26,5.26,0,0,0-.44-2.17,5.63,5.63,0,0,0-1.2-1.79,5.69,5.69,0,0,0-6.2-1.21,5.24,5.24,0,0,0-1.8,1.21,5.83,5.83,0,0,0-1.21,1.79,5.43,5.43,0,0,0-.44,2.17,5.6,5.6,0,0,0,.44,2.19,5.88,5.88,0,0,0,1.21,1.8,5.38,5.38,0,0,0,1.8,1.21A5.61,5.61,0,0,0,345.69,224.78Z"/><path class="cls-10" d="M373.18,229.3H359.47V227a4.86,4.86,0,0,1,.47-2.11,8.09,8.09,0,0,1,1.24-1.83,14.86,14.86,0,0,1,1.71-1.64c.64-.53,1.29-1,1.95-1.54.41-.29.83-.62,1.28-1s.85-.72,1.22-1.07a10.13,10.13,0,0,0,.92-1,1.51,1.51,0,0,0,.38-.87,3,3,0,0,0-.16-.95,2.55,2.55,0,0,0-.44-.83,2,2,0,0,0-.72-.59,2.12,2.12,0,0,0-1-.23,2.15,2.15,0,0,0-1,.23,2,2,0,0,0-.72.59,2.52,2.52,0,0,0-.43.83,3.31,3.31,0,0,0-.14.95h-4.54a7.33,7.33,0,0,1,.53-2.79,6.9,6.9,0,0,1,1.45-2.26,6.82,6.82,0,0,1,2.18-1.51,6.5,6.5,0,0,1,2.68-.56,6.62,6.62,0,0,1,2.7.55A6.86,6.86,0,0,1,371.2,211a7,7,0,0,1,1.45,2.25,7.41,7.41,0,0,1,.53,2.79,5,5,0,0,1-.52,2.27,9,9,0,0,1-1.31,2,16.46,16.46,0,0,1-1.8,1.73c-.67.54-1.32,1.06-2,1.56l-.8.62-.83.65h7.23Z"/><path class="cls-10" d="M387,209a9.9,9.9,0,0,1,4,.8,10.22,10.22,0,0,1,3.24,2.18,10.48,10.48,0,0,1,2.19,3.23,10.13,10.13,0,0,1,0,7.89,10.44,10.44,0,0,1-2.19,3.22,10.22,10.22,0,0,1-3.24,2.18,10.2,10.2,0,0,1-7.92,0,10.28,10.28,0,0,1-3.23-2.18,10.1,10.1,0,0,1-2.19-3.22,10.13,10.13,0,0,1,0-7.89,10.15,10.15,0,0,1,2.19-3.23A10.28,10.28,0,0,1,383,209.8,10,10,0,0,1,387,209Zm0,15.78a5.61,5.61,0,0,0,2.2-.44,5.38,5.38,0,0,0,1.8-1.21,5.88,5.88,0,0,0,1.21-1.8,5.6,5.6,0,0,0,.44-2.19,5.43,5.43,0,0,0-.44-2.17,5.83,5.83,0,0,0-1.21-1.79,5.24,5.24,0,0,0-1.8-1.21,5.66,5.66,0,0,0-6.2,1.21,5.8,5.8,0,0,0-1.2,1.79,5.26,5.26,0,0,0-.44,2.17,5.43,5.43,0,0,0,.44,2.19,5.85,5.85,0,0,0,1.2,1.8,5.63,5.63,0,0,0,4,1.65Z"/><path class="cls-18" d="M140.29,127.91a9.71,9.71,0,0,1-1.21-.07q-.59-.07-1.17-.18a8.92,8.92,0,0,1-1.13-.29c-.37-.12-.74-.25-1.1-.4l-1-.52c-.33-.18-.67-.37-1-.59a6.17,6.17,0,0,1-.9-.67c-.29-.25-.57-.5-.83-.77a8.08,8.08,0,0,1-1.45-1.73,13.19,13.19,0,0,1-1.12-2,15,15,0,0,1-.69-2.23,12.72,12.72,0,0,1-.22-2.37v-2.73a13.6,13.6,0,0,1,.22-2.38c.1-.38.2-.76.31-1.13a11,11,0,0,1,.38-1.1c.17-.33.34-.67.52-1a9.89,9.89,0,0,1,.6-1,6.09,6.09,0,0,1,.67-.93c.25-.29.51-.56.78-.83a13.34,13.34,0,0,1,1.73-1.44,14.34,14.34,0,0,1,2-1.07c.36-.15.73-.28,1.1-.4a8.92,8.92,0,0,1,1.13-.29,11.52,11.52,0,0,1,4.75,0,8.92,8.92,0,0,1,1.13.29c.37.12.74.25,1.1.4a10.89,10.89,0,0,1,2,1.07,13.12,13.12,0,0,1,1.76,1.44,11.75,11.75,0,0,1,1.44,1.76,11.56,11.56,0,0,1,1.08,2,12.42,12.42,0,0,1,.68,2.23l-5.76,1.19a5.5,5.5,0,0,0-.32-1.12,8.9,8.9,0,0,0-.57-1,3.21,3.21,0,0,0-.72-.87,2.31,2.31,0,0,0-.4-.37l-.47-.35a8.9,8.9,0,0,0-1-.57,6,6,0,0,0-1.12-.32,4.76,4.76,0,0,0-2.37,0,6,6,0,0,0-1.12.32,8.9,8.9,0,0,0-1,.57l-.47.35a3.54,3.54,0,0,0-.43.37,5.52,5.52,0,0,0-.72.87,4.09,4.09,0,0,0-.54,1c-.07.2-.14.38-.2.56s-.11.37-.16.56a7,7,0,0,0-.11,1.19v2.73a6.75,6.75,0,0,0,.11,1.22c0,.19.1.38.16.56s.13.35.2.52a5.21,5.21,0,0,0,.54,1c.12.16.24.32.36.46l.36.44.43.35a3.43,3.43,0,0,0,.47.36,4.09,4.09,0,0,0,1,.54l.56.2a5.15,5.15,0,0,0,.56.16,6.3,6.3,0,0,0,2.37,0,5.15,5.15,0,0,0,.56-.16l.56-.2a4.09,4.09,0,0,0,1-.54,6,6,0,0,0,.87-.71c.14-.15.27-.29.39-.44a3.83,3.83,0,0,0,.33-.46,2.34,2.34,0,0,0,.3-.47q.14-.26.27-.54a4.56,4.56,0,0,0,.18-.52c0-.18.1-.37.14-.56l5.76,1.15a10,10,0,0,1-.68,2.23,11,11,0,0,1-1.08,2,10.67,10.67,0,0,1-.69.9c-.24.29-.49.57-.75.83s-.54.52-.83.77a5.48,5.48,0,0,1-.93.67,10.92,10.92,0,0,1-1,.59l-1,.52c-.36.15-.73.28-1.1.4a8.92,8.92,0,0,1-1.13.29l-1.19.18A9.12,9.12,0,0,1,140.29,127.91Z"/><path class="cls-18" d="M169.55,101.44a12.7,12.7,0,0,1,5.14,1,13.42,13.42,0,0,1,4.21,2.82,13.16,13.16,0,0,1,2.84,4.19,13.32,13.32,0,0,1,0,10.32A13.38,13.38,0,0,1,178.9,124a13.59,13.59,0,0,1-4.21,2.82,13.22,13.22,0,0,1-10.28,0A13.59,13.59,0,0,1,160.2,124a13.22,13.22,0,0,1-2.84-4.19,13.32,13.32,0,0,1,0-10.32,13,13,0,0,1,2.84-4.19,13.42,13.42,0,0,1,4.21-2.82A12.7,12.7,0,0,1,169.55,101.44Zm0,20.54a7.38,7.38,0,0,0,5.2-2.15,7.42,7.42,0,0,0,1.56-2.35,7.22,7.22,0,0,0,0-5.67,7.4,7.4,0,0,0-1.56-2.32,7.16,7.16,0,0,0-2.34-1.58,7.46,7.46,0,0,0-5.72,0,7.16,7.16,0,0,0-2.34,1.58,7.4,7.4,0,0,0-1.56,2.32,7.22,7.22,0,0,0,0,5.67,7.42,7.42,0,0,0,1.56,2.35,7.38,7.38,0,0,0,5.2,2.15Z"/><path class="cls-18" d="M202.58,127.87l-8.4-15.1v15.1h-5.9V101.44h6.29L203,116.55V101.44h5.89v26.43Z"/><path class="cls-18" d="M238.11,117a6.43,6.43,0,0,1-.14,1.4,8.65,8.65,0,0,1-.29,1.14c-.12.37-.25.74-.39,1.1s-.32.67-.51,1-.39.67-.61,1a6.17,6.17,0,0,1-.67.9c-.25.29-.5.56-.77.83a9.85,9.85,0,0,1-.83.75,10.05,10.05,0,0,1-.89.69c-.34.22-.67.41-1,.59a8.86,8.86,0,0,1-1,.49,8,8,0,0,1-1.08.42c-.36.1-.74.21-1.15.3a12.37,12.37,0,0,1-2.37.22,12.67,12.67,0,0,1-2.37-.22c-.39-.09-.77-.2-1.14-.3a11,11,0,0,1-1.06-.38c-.36-.17-.71-.34-1-.52a8.72,8.72,0,0,1-1-.6,10.82,10.82,0,0,1-1.76-1.44,11.81,11.81,0,0,1-1.44-1.72,13,13,0,0,1-1.08-2c-.15-.35-.28-.72-.4-1.09a8.88,8.88,0,0,1-.28-1.13,6.82,6.82,0,0,1-.2-1.17,12.1,12.1,0,0,1-.06-1.21v-2.73a10.56,10.56,0,0,1,.26-2.37,9,9,0,0,1,.28-1.14c.12-.37.25-.73.4-1.09a13.41,13.41,0,0,1,1.08-2c.21-.31.44-.61.68-.9s.49-.56.76-.82a10.82,10.82,0,0,1,1.76-1.44,9.19,9.19,0,0,1,2-1.08,5.67,5.67,0,0,1,1.06-.41,10.52,10.52,0,0,1,1.14-.27,11.14,11.14,0,0,1,4.74,0,9.48,9.48,0,0,1,2.23.68,8.81,8.81,0,0,1,1,.48q.48.27,1,.6a12.62,12.62,0,0,1,1.72,1.44l-4.13,4.17a7.14,7.14,0,0,0-.9-.76,5.21,5.21,0,0,0-1-.54,4.56,4.56,0,0,0-.52-.18l-.56-.14a5.17,5.17,0,0,0-2.41,0,5,5,0,0,0-1.11.32c-.17.08-.34.15-.51.24a3.89,3.89,0,0,0-.5.3l-.45.36a2.59,2.59,0,0,0-.41.4,2.33,2.33,0,0,0-.38.39l-.34.47a4.15,4.15,0,0,0-.54,1,3.91,3.91,0,0,0-.36,1.11,7.12,7.12,0,0,0-.11,1.19V116a6.26,6.26,0,0,0,.11,1.19,3.81,3.81,0,0,0,.36,1.11,4,4,0,0,0,.54,1,5.9,5.9,0,0,0,.72.9,5,5,0,0,0,.41.36l.45.36a3.89,3.89,0,0,0,.5.3q.25.14.51.24a5,5,0,0,0,1.11.32,5.17,5.17,0,0,0,2.41,0l.56-.14a4.56,4.56,0,0,0,.52-.18,5.21,5.21,0,0,0,1-.54c.16-.12.32-.24.46-.36l.44-.36.36-.43c.12-.15.24-.3.36-.47a7.6,7.6,0,0,0,.54-1L232,118l.13-.36h-5.72v-5.89h11.76Z"/><path class="cls-18" d="M249.56,127.87h-5.9V101.44h8.83a9.35,9.35,0,0,1,3.78.76,9.83,9.83,0,0,1,3.1,2.08,9.69,9.69,0,0,1,2.09,3.1,9.27,9.27,0,0,1,.76,3.74,9.57,9.57,0,0,1-1.06,4.44,9.82,9.82,0,0,1-2.87,3.36l5.12,9h-6.78l-4-7.08h-3Zm0-12.94h2.91a3.63,3.63,0,0,0,1.5-.31,4.06,4.06,0,0,0,1.22-.81,4,4,0,0,0,.83-1.22,3.65,3.65,0,0,0,.3-1.47,3.53,3.53,0,0,0-.3-1.46,4,4,0,0,0-.83-1.2,4.09,4.09,0,0,0-1.22-.82,3.79,3.79,0,0,0-1.5-.3h-2.91Z"/><path class="cls-18" d="M274.47,107.34v4.35h11.22v5.9H274.47V122h11.22v5.89H268.57V101.41h5.9v0h11.22v5.9Z"/><path class="cls-18" d="M329.24,101.44a12.74,12.74,0,0,1,5.14,1,13.37,13.37,0,0,1,4.2,2.82,13.18,13.18,0,0,1,2.85,4.19,13.32,13.32,0,0,1,0,10.32,13.33,13.33,0,0,1-7.05,7,13.25,13.25,0,0,1-10.29,0,13.33,13.33,0,0,1-7-7,13.32,13.32,0,0,1,0-10.32,13.18,13.18,0,0,1,2.85-4.19,13.37,13.37,0,0,1,4.2-2.82A12.75,12.75,0,0,1,329.24,101.44Zm0,20.54a7.05,7.05,0,0,0,2.85-.58,7.14,7.14,0,0,0,2.34-1.57,7.62,7.62,0,0,0,1.57-2.35,7.34,7.34,0,0,0,0-5.67,7.6,7.6,0,0,0-1.57-2.32,7.27,7.27,0,0,0-5.19-2.15,7.27,7.27,0,0,0-2.86.57,7.16,7.16,0,0,0-2.34,1.58,7.6,7.6,0,0,0-1.57,2.32,7.34,7.34,0,0,0,0,5.67,7.62,7.62,0,0,0,1.57,2.35,7.38,7.38,0,0,0,5.2,2.15Z"/><path class="cls-18" d="M301.08,128.24a12.44,12.44,0,0,1-2.91-.34,10.76,10.76,0,0,1-2.74-1.07,9.61,9.61,0,0,1-3.52-3.28,8.09,8.09,0,0,1-1.25-4.39h7.07a2.42,2.42,0,0,0,.54,1.68,3.69,3.69,0,0,0,1,.81,3.5,3.5,0,0,0,1.64.47,4.06,4.06,0,0,0,1.71-.29,2.64,2.64,0,0,0,.94-.54,3.34,3.34,0,0,0,.55-.63,1.8,1.8,0,0,0,.23-.6,2.78,2.78,0,0,0,0-.94,2,2,0,0,0-.23-.62,2.82,2.82,0,0,0-.55-.63,3.7,3.7,0,0,0-.94-.56,10.21,10.21,0,0,0-1-.33c-.35-.09-.72-.2-1.11-.32-.7-.19-1.42-.41-2.18-.65a13.33,13.33,0,0,1-2.26-1,8.49,8.49,0,0,1-2.47-2,7.65,7.65,0,0,1-1.44-2.57,7,7,0,0,1-.29-2.84,6.84,6.84,0,0,1,.94-2.81,8.14,8.14,0,0,1,1.88-2.13,9.44,9.44,0,0,1,2.51-1.43,10.19,10.19,0,0,1,3-.63,11,11,0,0,1,3.22.25,10.28,10.28,0,0,1,2.87,1,8.89,8.89,0,0,1,2.23,1.7,7.35,7.35,0,0,1,1.44,2.23,6.8,6.8,0,0,1,.5,2.57h-6.24a3.29,3.29,0,0,1-.83,0,1.05,1.05,0,0,0-.32-.93,2.28,2.28,0,0,0-.85-.5,3.41,3.41,0,0,0-1.45-.21c-1,.09-2.1.93-1.76,2.06v0a1.76,1.76,0,0,0,.84,1,9.25,9.25,0,0,0,1.3.53q.7.24,1.5.45c.48.12,1,.25,1.45.4s1,.31,1.48.51a9.56,9.56,0,0,1,4.3,3.18,7.71,7.71,0,0,1,0,9.3,9.65,9.65,0,0,1-4.3,3.19,10.89,10.89,0,0,1-2.21.63A13.36,13.36,0,0,1,301.08,128.24Z"/><path class="cls-18" d="M93.32,139.57a18.94,18.94,0,0,1,7.56,1.51,19.56,19.56,0,0,1,10.38,10.35,19.34,19.34,0,0,1,0,15,19.5,19.5,0,0,1-4.18,6.19,19.72,19.72,0,0,1-6.21,4.17,19,19,0,0,1-7.57,1.51H87.46v14.1H75.66V139.57Zm0,27a7.49,7.49,0,0,0,3-.61,7.73,7.73,0,0,0,4.1-4.06,7.23,7.23,0,0,0,.61-3,7,7,0,0,0-.61-2.92,7.75,7.75,0,0,0-4.1-4,7.32,7.32,0,0,0-3-.61H87.46v15.18Z"/><path class="cls-18" d="M144.62,139.49l12.51,52.94H145.05l-1.44-5.9H128.08l-1.37,5.9H114.63l12.44-52.94Zm-13.74,35.24h10l-5-21.21Z"/><path class="cls-18" d="M174.8,192.43H163V139.57h17.65a19,19,0,0,1,7.57,1.51,19.56,19.56,0,0,1,10.38,10.35,19.44,19.44,0,0,1-.62,16.36,19.46,19.46,0,0,1-5.73,6.73l10.23,18H188.94l-8.08-14.17H174.8Zm0-25.89h5.83a7.49,7.49,0,0,0,3-.61,7.81,7.81,0,0,0,2.45-1.64,7.7,7.7,0,0,0,1.65-2.42,7.23,7.23,0,0,0,.61-3,7,7,0,0,0-.61-2.92,7.75,7.75,0,0,0-4.1-4,7.32,7.32,0,0,0-3-.61H174.8Z"/><path class="cls-18" d="M231.6,192.43l-1.66-.15a24.81,24.81,0,0,1-9.24-2.77,27.2,27.2,0,0,1-7.48-5.79A26.25,26.25,0,0,1,206.43,166a25.6,25.6,0,0,1,2.08-10.28,26.37,26.37,0,0,1,5.68-8.38,27,27,0,0,1,8.42-5.65,26.47,26.47,0,0,1,20.57,0,27.4,27.4,0,0,1,8.41,5.63,26.33,26.33,0,0,1,5.68,8.37,26.17,26.17,0,0,1,.9,18,28.94,28.94,0,0,1-3.27,6.93h4.46v11.8ZM218.22,166a14.22,14.22,0,0,0,1.15,5.69,15.12,15.12,0,0,0,3.13,4.69,14.55,14.55,0,0,0,10.39,4.29,14.55,14.55,0,0,0,10.39-4.29,15.12,15.12,0,0,0,3.13-4.69,14.22,14.22,0,0,0,1.15-5.69,14,14,0,0,0-1.15-5.65,15.22,15.22,0,0,0-3.13-4.66,14.71,14.71,0,0,0-20.78,0,15.22,15.22,0,0,0-3.13,4.66A14,14,0,0,0,218.22,166Z"/><path class="cls-18" d="M286.54,192.43a19.29,19.29,0,0,1-7.82-1.59A20.34,20.34,0,0,1,268,180.16a19.23,19.23,0,0,1-1.59-7.8V139.57h11.8V172.3a7.94,7.94,0,0,0,.65,3.23,8.37,8.37,0,0,0,1.79,2.66,8.56,8.56,0,0,0,2.63,1.8,7.88,7.88,0,0,0,3.2.64,8.18,8.18,0,0,0,3.24-.64,8.45,8.45,0,0,0,2.66-1.8,8.37,8.37,0,0,0,1.79-2.66,7.94,7.94,0,0,0,.65-3.23V139.57h11.8v32.79a19.23,19.23,0,0,1-1.59,7.8,20.34,20.34,0,0,1-10.7,10.68A19.27,19.27,0,0,1,286.54,192.43Z"/><path class="cls-18" d="M326.69,151.36v8.7h22.44v11.8H326.69v8.77h22.44v11.8H314.89V139.49h11.8v.08h22.44v11.79Z"/><path class="cls-18" d="M376.58,193.33a25.3,25.3,0,0,1-5.79-.68,21.44,21.44,0,0,1-5.45-2.13,19.06,19.06,0,0,1-7-6.51,16.26,16.26,0,0,1-2.49-8.75h14.07a4.82,4.82,0,0,0,1.08,3.35,7.46,7.46,0,0,0,1.92,1.62,7.07,7.07,0,0,0,3.25.93,8.36,8.36,0,0,0,3.41-.57,5.65,5.65,0,0,0,1.87-1.08,6.33,6.33,0,0,0,1.09-1.27,3,3,0,0,0,.45-1.18,5,5,0,0,0,0-1.88,3.33,3.33,0,0,0-.45-1.22,5.17,5.17,0,0,0-1.09-1.26,7.22,7.22,0,0,0-1.87-1.12,18.78,18.78,0,0,0-2-.64c-.69-.2-1.43-.41-2.2-.65-1.39-.39-2.84-.82-4.33-1.3a26.46,26.46,0,0,1-4.5-1.94,17,17,0,0,1-4.91-4A15.05,15.05,0,0,1,358.8,158a13.79,13.79,0,0,1-.58-5.65,13.44,13.44,0,0,1,1.87-5.58,16.36,16.36,0,0,1,3.75-4.25,18.58,18.58,0,0,1,5-2.85,20.85,20.85,0,0,1,5.91-1.26,22.56,22.56,0,0,1,6.41.51,20.11,20.11,0,0,1,5.72,2.05,17.58,17.58,0,0,1,4.43,3.39,14,14,0,0,1,2.86,4.42,13.56,13.56,0,0,1,1,5.12h-14a2.39,2.39,0,0,0-1.21-2.31,8.8,8.8,0,0,0-2.12-.86,7.28,7.28,0,0,1-.79-.11,4.81,4.81,0,0,0-1.42,0,5.4,5.4,0,0,0-1.62.51,2.94,2.94,0,0,0-1.33,1.26,2.8,2.8,0,0,0-.25,2.41,3.53,3.53,0,0,0,1.66,2,20.24,20.24,0,0,0,2.59,1c.94.32,1.94.61,3,.9s1.9.51,2.87.79,2,.63,3,1a19.19,19.19,0,0,1,8.57,6.34,15.37,15.37,0,0,1,0,18.51,19.19,19.19,0,0,1-8.57,6.34,23,23,0,0,1-4.4,1.26A26.3,26.3,0,0,1,376.58,193.33Z"/></g></g></svg>